# xmcd CD database file
#
# Track frame offsets:
#	150
#	17925
#	43200
#	59850
#	69822
#	84167
#	97367
#	109881
#	132831
#
# Disc length: 2027 seconds
#
# Revision: 1
# Processed by: cddbd v1.5PL3 Copyright (c) Steve Scherf et al.
# Submitted via: CDex 1.51
#
DISCID=8007e909
DTITLE=Green Bullfrog - Report Amphibians
DYEAR=2001
DGENRE=Blues
TTITLE0=Crossroads' Tumblin' Bone
TTITLE1=Road
TTITLE2=Spider In My Bed
TTITLE3=Norty Dame Blues
TTITLE4=Tale Of Two Cities
TTITLE5=Talkin' Drinkin' Man
TTITLE6=Snake Girl Blues
TTITLE7=The Bear
TTITLE8=Poltergeist Blues
EXTD=YEAR: 2001
EXTT0=
EXTT1=
EXTT2=
EXTT3=
EXTT4=
EXTT5=
EXTT6=
EXTT7=
EXTT8=
PLAYORDER=
